# xmcd
#
# Track frame offsets:
#	180
#	21906
#	43934
#	61720
#	83136
#	100452
#	123728
#	140032
#	162085
#	183489
#
# Disc length: 2652 seconds
#
# Revision: 3
# Processed by: cddbd v1.5.2PL0 Copyright (c) Steve Scherf et al.
# Submitted via: dBpowerAMP V4.0
#
DISCID=8b0a5a0a
DTITLE=חוה אלברשטיין - אבק של כוכבים
DYEAR=1984
DGENRE=Folk
TTITLE0=אבק של כוכבים
TTITLE1=שובי לביתך
TTITLE2=אצלי הכל בסדר
TTITLE3=אהבה
TTITLE4=שיר עבודה
TTITLE5=נואיבה
TTITLE6=ד"ר יארינג
TTITLE7=היא עוברת
TTITLE8=שיר עם רחוק
TTITLE9=תן לי יד
EXTD=
EXTT0=
EXTT1=
EXTT2=
EXTT3=
EXTT4=
EXTT5=
EXTT6=
EXTT7=
EXTT8=
EXTT9=
PLAYORDER=
